<?xml version="1.0" encoding="UTF-8"?>
<svg id="Layer_2" data-name="Layer 2" xmlns="http://www.w3.org/2000/svg" viewBox="0 0 860 840.65">
  <g id="Layer_1-2" data-name="Layer 1">
    <g>
      <path d="M240.04,785.77c-20.16,11.22-37.66,20.56-57.89,29.17-44.55,15.91-90.52,25.03-139.5,25.72l-.09-465.08c-.02-91.83,21.84-164.46,78.71-236.58-49.17-7.67-90.98-41.7-110.66-85.94C3.16,36.3,1.42,18.98,0,0l425.78.76c66.72.12,130.96,25.57,184.5,62.94,50.05,34.92,89.43,79.08,117.38,132.8,6.97,13.39,11.03,26.36,17.37,41.1l-72.87,205.61c-19.76,51-51.65,93.48-92.83,129.03-58.56,50.56-131.01,79.05-208.25,79.91-33.71,54.72-77.26,99.13-131.06,133.62ZM609.09,365.86c12.99-39.69,13.18-77.9,2.85-117.48-29.7-113.83-148.31-183.94-263.36-151.24-75.42,21.44-132.21,80.08-151.17,155.9-27.53,110.06,41.84,222.79,148.15,253.04,115.06,32.74,228.19-32.23,263.53-140.22Z"/>
      <path d="M332.1,839.42c-47.47,1.86-91.71,1.14-139.24.41,40.67-18.86,77.4-39.38,110.64-68.48,31.51-27.58,58.85-56.95,81.79-92.48,98.66-7.38,172.4-44.71,242.3-116.39-3.36,14.23-8.54,27.13-13.31,41.1-35.48,103.88-103.95,187.69-210.96,221.95-22.79,7.29-46.23,12.9-71.23,13.88Z"/>
      <path d="M839.3,533.19l-138.63-90.4,65.49-183.32c74.25,51.94,107.44,141.61,88.7,228.56-3.11,16.17-6.54,30.43-15.57,45.16Z"/>
      <path d="M709.5,569.26c-18.65,5.07-36.05,7.73-55.66,4.83l37.41-106.14,87.84,58c-18.13,20.82-43.18,33.32-69.59,43.31Z"/>
      <path d="M520.36,285.7c-8.19,38.66-46.26,61.1-82.72,54.33-37.51-6.96-63.72-41.16-59.48-79.17,4.15-37.18,36.61-67.02,76.04-64.59,45.22,2.79,75.78,43.97,66.15,89.43Z"/>
    </g>
  </g>
</svg>