<?xml version="1.0" encoding="UTF-8"?>
<svg id="Layer_2" data-name="Layer 2" xmlns="http://www.w3.org/2000/svg" viewBox="0 0 829.8 160">
  <defs>
    <style>
      .cls-1 {
        fill: #ef6b00;
      }

      .cls-2 {
        fill: #fbc201;
      }

      .cls-3 {
        fill: #b8dde5;
      }

      .cls-4 {
        fill: #1895ef;
      }

      .cls-5 {
        fill: #1e1d1e;
      }
    </style>
  </defs>
  <g id="Layer_1-2" data-name="Layer 1">
    <g>
      <g>
        <path class="cls-2" d="M110,40h-40V0c.36,0,.72,0,1.08.01,14.96.4,27.88,9.02,34.39,21.5,2.9,5.53,4.53,11.82,4.53,18.49Z"/>
        <path class="cls-1" d="M40,40c0,3.14.48,6.16,1.38,9.01-.85.59-1.69,1.22-2.5,1.87-1.98,1.56-3.83,3.28-5.54,5.13-8.28,8.92-13.34,20.87-13.34,33.99,0,27.61,22.39,50,50,50C31.34,140,0,108.66,0,70c0-10.74,2.42-20.91,6.74-30,2.23-4.69,4.96-9.09,8.13-13.13C27.48,10.78,46.97.34,68.92.01c.36-.01.72-.01,1.08-.01v10c-16.57,0-30,13.43-30,30Z"/>
        <path class="cls-1" d="M100,40c0,3.14-.48,6.16-1.38,9.01-3.82,12.17-15.19,20.99-28.62,20.99v-30c.33,0,.67,0,1,.02t.01-.02h28.99Z"/>
        <path class="cls-3" d="M143.83,155.83c-7.44,2.7-15.46,4.17-23.83,4.17-19.08,0-36.37-7.64-49-20.01h0s.06-.01.09,0c.07,0,.13,0,.2-.01,15.32-.38,28.93-7.67,37.83-18.86l4.01,4.01,30.7,30.7Z"/>
        <path class="cls-2" d="M70,138.99c-12.37-12.63-20-29.92-20-48.99,0-4.98.52-9.84,1.51-14.53.68-3.19,1.57-6.29,2.66-9.3l-2.24-2.24-5.9-5.9c-2.04-2.68-3.61-5.73-4.65-9.02-.85.59-1.69,1.22-2.5,1.87-1.98,1.56-3.83,3.28-5.54,5.13-8.28,8.92-13.34,20.87-13.34,33.99,0,27.61,22.39,50,50,50,.16,0,.33,0,.5-.01.17.01.34,0,.5-.01-.34-.32-.67-.65-1-.99Z"/>
        <path class="cls-4" d="M109.12,121.12c-8.9,11.19-22.51,18.48-37.83,18.86-.07.01-.13.01-.2.01-.03-.01-.06-.01-.09-.01-.34-.32-.67-.65-1-.99-12.37-12.63-20-29.92-20-48.99,0-4.98.52-9.84,1.51-14.53.68-3.19,1.57-6.29,2.66-9.3l54.95,54.95Z"/>
        <circle class="cls-5" cx="56" cy="26" r="5"/>
      </g>
      <g>
        <path class="cls-5" d="M170.61,24.86h33.69c19.13,0,34.29,9.38,34.29,28.88s-14.56,32.01-33.69,32.01h-18.17v27.55h-16.12V24.86ZM222.35,54.94c0-9.99-6.74-16-19.37-16h-16.24v32.73h16.24c12.63,0,19.37-6.38,19.37-16.72Z"/>
        <path class="cls-5" d="M238.85,81.41c0-19.85,13.35-34.41,31.52-34.41,9.39,0,16.97,3.97,21.66,10.47v-9.02h14.92v66.42h-.24c-2.65-4.81-6.02-7.1-10.59-7.1-7.58,0-11.79,7.1-25.03,7.1-18.89,0-32.25-13.72-32.25-33.45ZM292.27,80.93c0-11.67-7.82-19.73-19.01-19.73s-18.89,8.3-18.89,19.73,7.82,19.85,19.13,19.85,18.77-8.18,18.77-19.85Z"/>
        <path class="cls-5" d="M313.88,81.41c0-19.85,13.6-34.41,31.52-34.41,9.15,0,16.36,3.61,21.06,9.75v-31.89h15.52v90h-.24c-2.65-4.81-6.14-7.1-10.59-7.1-7.7,0-11.79,7.1-25.03,7.1-19.01,0-32.25-13.72-32.25-33.45ZM367.31,80.93c0-11.67-7.82-19.73-19.01-19.73s-18.89,8.3-18.89,19.73,7.82,19.85,19.13,19.85,18.77-8.18,18.77-19.85Z"/>
        <path class="cls-5" d="M388.92,81.41c0-21.06,16.24-34.41,33.33-34.41,21.06,0,34.41,16,31.76,38.02h-49.33c1.08,10.47,8.06,16.48,17.93,16.48,8.06,0,13.35-3.73,16.24-10.11l13.24,4.93c-5.66,12.03-16.73,18.53-29.84,18.53-19.01,0-33.33-12.87-33.33-33.45ZM422.25,59.87c-8.78,0-15.04,5.66-17.09,14.56h33.57c-.96-8.9-7.22-14.56-16.48-14.56Z"/>
        <path class="cls-5" d="M460.26,24.86h15.52v88.44h-15.52V24.86Z"/>
        <path class="cls-5" d="M487.74,24.86h33.69c19.13,0,34.29,9.38,34.29,28.88s-14.56,32.01-33.69,32.01h-18.17v27.55h-16.12V24.86ZM539.48,54.94c0-9.99-6.74-16-19.37-16h-16.24v32.73h16.24c12.63,0,19.37-6.38,19.37-16.72Z"/>
        <path class="cls-5" d="M555.98,81.41c0-19.85,13.36-34.41,31.52-34.41,9.39,0,16.97,3.97,21.66,10.47v-9.02h14.92v66.42h-.24c-2.65-4.81-6.02-7.1-10.59-7.1-7.58,0-11.79,7.1-25.03,7.1-18.89,0-32.25-13.72-32.25-33.45ZM609.4,80.93c0-11.67-7.82-19.73-19.01-19.73s-18.89,8.3-18.89,19.73,7.82,19.85,19.13,19.85,18.77-8.18,18.77-19.85Z"/>
        <path class="cls-5" d="M634.66,48.44h14.92v11.55c3.25-8.18,10.47-12.99,19.61-12.99,1.68,0,3.37.12,4.81.36v16.6c-1.44-.84-4.45-1.44-7.22-1.44-9.99,0-16.6,6.26-16.6,18.05v32.73h-15.52V48.44Z"/>
        <path class="cls-5" d="M677.5,48.44h14.92v11.55c3.25-8.18,10.47-12.99,19.61-12.99,1.68,0,3.37.12,4.81.36v16.6c-1.44-.84-4.45-1.44-7.22-1.44-9.99,0-16.6,6.26-16.6,18.05v32.73h-15.52V48.44Z"/>
        <path class="cls-5" d="M716.62,80.93c0-18.89,15.16-33.93,34.41-33.93s34.53,14.44,34.53,33.93-15.28,33.93-34.53,33.93-34.41-14.32-34.41-33.93ZM770.04,80.93c0-11.55-7.82-19.73-19.01-19.73s-18.89,8.18-18.89,19.73,7.82,19.85,18.89,19.85,19.01-8.18,19.01-19.85Z"/>
        <path class="cls-5" d="M798.87,62.04h-14.32v-13.6h14.32v-10.59l15.52-7.7v18.29h15.4v13.6h-15.4v51.26h-15.52v-51.26Z"/>
      </g>
    </g>
  </g>
</svg>